# xmcd
#
# Track frame offsets:
#	150
#	18809
#	40191
#	65592
#	101625
#	121694
#	148462
#	171645
#	206994
#	238967
#	267851
#	290046
#	310166
#
# Disc length: 4722 seconds
# Revision: 0
# Processed by: cddbd v1.5.2PL0 Copyright (c) Steve Scherf et al.
# Submitted via: dBpowerAMP V12.0
#
DISCID=ce12700d
DTITLE=Various Artist - Get Down with the Philly Sound, Disc 1 - The Originals
DYEAR=1977
DGENRE=Funk, Disco, Soul
TTITLE0=Teddy Pendergrass - You Can't Hide From Yourself 
TTITLE1=Eddie Kendricks - He's A Friend
TTITLE2=Philly Devotions - Hurt So Bad
TTITLE3=Harld Melvin and The Blue Notes - Bad Luck
TTITLE4=The Jacksons - Living Together
TTITLE5=Harld Melvin and The Blue Notes - Tell The World How I Feel About 'Cha Baby
TTITLE6=John Davis and The Monster Orchestra - Night And Day
TTITLE7=Carl Bean - I Was Born This Way
TTITLE8=The Trammps - The Night The Lights Went Out
TTITLE9=Harld Melvin and The Blue Notes - The Love I Lost
TTITLE10=Charles Mann - Do It Again
TTITLE11=Teddy Pendergrass - The More I Get, The More I Want
TTITLE12=TJM - I Don't Need No Music
EXTD=
EXTT0=
EXTT1=
EXTT2=
EXTT3=
EXTT4=
EXTT5=
EXTT6=
EXTT7=
EXTT8=
EXTT9=
EXTT10=
EXTT11=
EXTT12=
PLAYORDER=
